<svg 
 xmlns="http://www.w3.org/2000/svg"
 xmlns:xlink="http://www.w3.org/1999/xlink"
 width="19px" height="19px">
<path fill-rule="evenodd"  fill="rgb(169,169,169)"
 d="M18.021,4.100 L10.084,12.072 C9.604,12.554 8.267,13.229 7.868,13.424 C7.216,13.744 6.038,14.281 5.487,14.281 C5.227,14.281 5.069,14.177 4.982,14.089 C4.737,13.844 4.790,13.497 4.807,13.383 C4.830,13.232 4.878,13.049 4.953,12.823 C5.112,12.345 5.354,11.802 5.529,11.430 C5.940,10.557 6.569,9.387 6.990,8.964 L14.927,0.992 C15.340,0.577 15.890,0.349 16.474,0.349 C17.058,0.349 17.608,0.577 18.021,0.992 C18.434,1.407 18.662,1.959 18.662,2.546 C18.662,3.133 18.434,3.685 18.021,4.100 ZM6.610,11.652 C6.314,12.261 6.118,12.735 6.001,13.065 C6.330,12.948 6.802,12.751 7.408,12.454 C8.338,11.997 9.025,11.573 9.275,11.359 L7.700,9.777 C7.486,10.028 7.065,10.718 6.610,11.652 ZM8.454,9.014 L10.034,10.601 L16.509,4.099 L14.928,2.511 L8.454,9.014 ZM17.264,1.753 C17.053,1.541 16.772,1.424 16.474,1.424 C16.176,1.424 15.897,1.540 15.686,1.751 L17.266,3.338 C17.476,3.126 17.591,2.845 17.591,2.546 C17.591,2.246 17.475,1.964 17.264,1.753 ZM12.000,1.000 L2.000,1.000 C1.204,0.973 1.000,1.662 1.000,2.000 L1.000,17.000 C1.000,17.338 1.664,18.000 2.000,18.000 L16.000,18.000 C16.336,18.000 17.000,17.338 17.000,17.000 L17.000,7.000 C17.000,5.815 18.000,5.815 18.000,7.000 L18.000,17.000 C18.000,17.932 16.928,19.000 16.000,19.000 L2.000,19.000 C1.072,19.000 -0.000,17.932 -0.000,17.000 L-0.000,2.000 C-0.000,1.068 0.613,-0.014 2.000,0.000 L12.000,0.000 C12.611,0.000 12.611,1.000 12.000,1.000 Z"/>
</svg>